<svg width="37" height="44" viewBox="0 0 37 44" fill="none" xmlns="http://www.w3.org/2000/svg">
<path d="M19.0958 36.84C19.5494 36.6783 19.5428 36.5963 19.0759 36.5941L7.45842 36.5243C7.4144 36.5243 7.37219 36.5415 7.34106 36.572C7.30994 36.6026 7.29246 36.644 7.29246 36.6871V43.7607C7.29246 43.8825 7.23271 43.9435 7.11321 43.9435L0.165964 43.9999C0.0575342 44.0022 0.00331935 43.949 0.00331935 43.8405L0 14.2869C0 14.1407 0.0630662 14.0311 0.189199 13.958L3.46201 12.0642C3.56601 12.0044 3.66891 12.0044 3.7707 12.0642L7.14309 14.0178C7.24267 14.0754 7.29246 14.1618 7.29246 14.277V19.0481C7.29245 19.0767 7.29814 19.1051 7.30919 19.1315C7.32024 19.1579 7.33643 19.1819 7.35682 19.202C7.3772 19.222 7.40138 19.2379 7.42794 19.2485C7.4545 19.2592 7.48292 19.2645 7.51153 19.264L14.6911 19.1378C14.7929 19.1378 14.8438 19.0857 14.8438 18.9816V14.2338C14.8438 14.1075 14.898 14.0134 15.0065 13.9514L18.3423 12.0376C18.3864 12.0124 18.4364 11.9994 18.4872 12C18.5379 12.0006 18.5876 12.0147 18.6311 12.0409L21.9935 13.9946C22.0953 14.0544 22.1462 14.1441 22.1462 14.2637V19.0281C22.1462 19.0757 22.1651 19.1213 22.1987 19.155C22.2323 19.1886 22.2779 19.2075 22.3255 19.2075L29.5416 19.2241C29.6456 19.2241 29.6976 19.1721 29.6976 19.068V14.2537C29.6976 14.1363 29.7485 14.0477 29.8503 13.9879L33.2127 12.0808C33.2674 12.0495 33.3297 12.0334 33.3932 12.034C33.4567 12.0345 33.5192 12.0518 33.5745 12.0841L36.8307 13.9846C36.8823 14.0148 36.925 14.058 36.9548 14.1098C36.9845 14.1617 37.0001 14.2205 37 14.2803V43.6478C37 43.8582 36.8949 43.9623 36.6847 43.9601L29.8104 43.9036C29.7264 43.9036 29.6843 43.8615 29.6843 43.7773L29.7275 38.4613C29.7275 38.324 29.7938 38.2398 29.9266 38.2088C31.4668 37.8345 32.9715 37.3539 34.4408 36.7669C34.4634 36.7584 34.4822 36.7422 34.4941 36.7212C34.5059 36.7002 34.51 36.6757 34.5057 36.652C34.5013 36.6282 34.4888 36.6068 34.4703 36.5914C34.4518 36.5759 34.4284 36.5675 34.4043 36.5675L22.3653 36.4978C22.2193 36.4978 22.1462 36.5709 22.1462 36.717V43.7806C22.1462 43.8582 22.1075 43.8969 22.0301 43.8969L14.9998 43.9734C14.8958 43.9734 14.8438 43.9224 14.8438 43.8205V38.5145C14.8438 38.3883 14.9047 38.3052 15.0264 38.2653C16.0775 37.9286 17.1197 37.6208 18.1531 37.3417C18.578 37.2254 18.7705 36.9563 19.0958 36.84ZM14.95 25.4405L19.2551 24.1481C19.2751 24.1424 19.2924 24.1296 19.3037 24.1122C19.3151 24.0948 19.3198 24.0739 19.3169 24.0533C19.3141 24.0327 19.304 24.0138 19.2883 24.0001C19.2727 23.9863 19.2527 23.9787 19.2319 23.9786H7.58455C7.44514 23.9786 7.37544 24.0473 7.37544 24.1846V31.7034C7.37544 31.8142 7.43076 31.8695 7.5414 31.8695H14.5949C14.7055 31.8695 14.7608 31.8142 14.7608 31.7034V25.693C14.7608 25.5623 14.8239 25.4782 14.95 25.4405ZM29.8038 25.4372L34.3413 24.0783C34.5603 24.0119 34.5559 23.9786 34.328 23.9786H22.3952C22.3512 23.9786 22.3089 23.9961 22.2778 24.0273C22.2467 24.0584 22.2292 24.1007 22.2292 24.1448V31.7034C22.2292 31.8142 22.2845 31.8695 22.3952 31.8695H29.4486C29.5593 31.8695 29.6146 31.8142 29.6146 31.7034V25.6897C29.6145 25.6332 29.6329 25.5781 29.667 25.5326C29.7011 25.4871 29.7491 25.4536 29.8038 25.4372Z" fill="#363839"/>
<g clip-path="url(#clip0_4237_136)">
<path d="M25.6828 3.18115C25.6577 3.18719 25.6343 3.19841 25.6142 3.21403C25.5941 3.22965 25.5777 3.24929 25.5663 3.27159C25.5549 3.2939 25.5486 3.31833 25.548 3.34318C25.5474 3.36803 25.5525 3.39271 25.5628 3.4155C25.7773 4.28499 25.8323 5.18377 25.7254 6.07142C25.6082 7.19641 25.2242 8.28061 24.6027 9.24067C23.9139 10.2517 22.9077 11.0256 21.7302 11.4502C20.6841 11.8697 19.5517 12.0529 18.4203 11.9859C17.0785 11.9361 15.7739 11.5488 14.6367 10.8627C13.4994 10.1767 12.5695 9.21591 11.9398 8.07638C11.4482 7.24926 11.1447 6.33136 11.0494 5.38326C11.0184 5.07452 11.0145 4.46076 11.0107 4.18549C11.0117 4.173 11.0161 4.16098 11.0235 4.15068C11.0309 4.14037 11.0411 4.13215 11.0529 4.12685C11.0647 4.12155 11.0778 4.11937 11.0908 4.12052C11.1038 4.12167 11.1162 4.12612 11.1268 4.13342C11.2468 4.22269 11.3591 4.30825 11.4791 4.39008C12.3115 4.97258 13.2862 5.33899 14.309 5.45394C16.0162 5.65853 17.406 5.04476 18.6332 3.92139C19.2363 3.35155 19.6912 2.6532 19.9611 1.88295C20.1158 1.37805 20.4261 0.930058 20.8511 0.598033C21.2762 0.266008 21.7959 0.0655413 22.3419 0.0230612C22.9249 -0.0370913 23.5127 0.0816825 24.0211 0.362346C24.5295 0.643009 24.9323 1.07114 25.1718 1.58537C25.2112 1.65741 25.2756 1.71398 25.3538 1.74532L26.9294 2.31816C26.9516 2.32796 26.9704 2.34368 26.9837 2.36346C26.9969 2.38324 27.0039 2.40625 27.0039 2.42976C27.0039 2.45326 26.9969 2.47628 26.9837 2.49606C26.9704 2.51584 26.9516 2.53156 26.9294 2.54135C26.6313 2.71246 26.0545 3.0212 25.6828 3.18115Z" fill="#3FD97F"/>
</g>
<defs>
<clipPath id="clip0_4237_136">
<rect width="16" height="12" fill="white" transform="translate(11)"/>
</clipPath>
</defs>
</svg>
