<svg width="36" height="36" viewBox="0 0 36 36" fill="none" xmlns="http://www.w3.org/2000/svg">
<circle cx="18" cy="18" r="18" fill="#3FD97F"/>
<circle cx="18" cy="18" r="18" fill="url(#paint0_radial_1_19)" fill-opacity="0.25"/>
<g clip-path="url(#clip0_1_19)">
<path d="M24.665 21.2807V23.2807C24.6657 23.4664 24.6277 23.6502 24.5533 23.8203C24.479 23.9904 24.3699 24.1431 24.233 24.2686C24.0962 24.3941 23.9347 24.4897 23.7588 24.5492C23.5829 24.6087 23.3966 24.6308 23.2117 24.614C21.1602 24.3911 19.1897 23.6901 17.4583 22.5674C15.8475 21.5438 14.4819 20.1782 13.4583 18.5674C12.3316 16.8282 11.6305 14.848 11.4117 12.7874C11.395 12.603 11.4169 12.4172 11.476 12.2418C11.5351 12.0664 11.63 11.9052 11.7548 11.7685C11.8796 11.6318 12.0315 11.5225 12.2009 11.4477C12.3702 11.3729 12.5532 11.3342 12.7383 11.334H14.7383C15.0619 11.3309 15.3755 11.4454 15.6208 11.6564C15.8661 11.8674 16.0264 12.1603 16.0717 12.4807C16.1561 13.1208 16.3126 13.7492 16.5383 14.354C16.628 14.5927 16.6474 14.852 16.5943 15.1013C16.5411 15.3506 16.4176 15.5795 16.2383 15.7607L15.3917 16.6074C16.3407 18.2764 17.7226 19.6583 19.3917 20.6074L20.2383 19.7607C20.4196 19.5815 20.6484 19.4579 20.8977 19.4048C21.1471 19.3516 21.4064 19.371 21.645 19.4607C22.2498 19.6864 22.8783 19.843 23.5183 19.9274C23.8422 19.9731 24.1379 20.1362 24.3494 20.3857C24.5608 20.6352 24.6731 20.9538 24.665 21.2807Z" stroke="#285D3E" stroke-width="1.5" stroke-linecap="round" stroke-linejoin="round"/>
</g>
<defs>
<radialGradient id="paint0_radial_1_19" cx="0" cy="0" r="1" gradientUnits="userSpaceOnUse" gradientTransform="translate(11.5082 7.08197) rotate(55.9679) scale(27.4172 27.4172)">
<stop stop-color="white"/>
<stop offset="0.697917" stop-color="white" stop-opacity="0"/>
<stop offset="1" stop-color="white" stop-opacity="0"/>
</radialGradient>
<clipPath id="clip0_1_19">
<rect width="16" height="16" fill="white" transform="translate(10 10)"/>
</clipPath>
</defs>
</svg>
