<svg width="60" height="64" viewBox="0 0 60 64" fill="none" xmlns="http://www.w3.org/2000/svg">
<path d="M55.6982 39.636L58.2763 38.2173L55.4263 33.0827L52.8482 34.5013C50.8714 35.5903 49.1199 37.0426 47.6866 38.7813L35.8929 32L47.6879 25.2187C49.1212 26.9574 50.8727 28.4097 52.8496 29.4987L55.4277 30.9173L58.2777 25.7827L55.6996 24.364C54.6643 23.7948 53.7197 23.0759 52.8964 22.2307L60 18.14L57.0536 13.0667L49.9554 17.144C49.6297 16.0108 49.4754 14.8357 49.4973 13.6573L49.5522 10.724L43.6594 10.6147L43.6045 13.548C43.5629 15.7949 43.9487 18.0293 44.7415 20.1333L32.9464 26.9187L32.9464 13.3573C35.1751 12.9903 37.3137 12.2063 39.2491 11.0467L41.7723 9.53333L38.7308 4.508L36.2076 6.02133C35.1933 6.62848 34.0944 7.08274 32.9464 7.36933L32.9464 1.08184e-07L27.0536 8.88341e-08L27.0536 7.36933C25.9056 7.08274 24.8067 6.62848 23.7924 6.02133L21.2692 4.508L18.2277 9.53333L20.7509 11.0467C22.6863 12.2063 24.8249 12.9903 27.0536 13.3573L27.0536 26.9187L15.2585 20.1333C16.0538 18.0279 16.4414 15.7917 16.4009 13.5427L16.346 10.6093L10.4531 10.7187L10.508 13.652C10.53 14.8304 10.3756 16.0055 10.05 17.1387L2.94643 13.0667L-5.9587e-08 18.1467L7.10491 22.232C6.28166 23.0772 5.337 23.7962 4.30179 24.3653L1.72366 25.7827L4.57366 30.9173L7.15179 29.4987C9.12864 28.4097 10.8801 26.9574 12.3134 25.2187L24.1071 32L12.3121 38.7813C10.8788 37.0426 9.1273 35.5903 7.15045 34.5013L4.57366 33.0827L1.72366 38.2173L4.30179 39.636C5.337 40.2052 6.28166 40.9241 7.10491 41.7693L-1.50609e-07 45.8667L2.94643 50.9467L10.0513 46.8627C10.377 47.9958 10.5313 49.1709 10.5094 50.3493L10.4545 53.2827L16.3473 53.392L16.4022 50.4587C16.4425 48.2091 16.0544 45.9724 15.2585 43.8667L27.0536 37.0813L27.0536 50.6427C24.8249 51.0097 22.6863 51.7937 20.7509 52.9533L18.2277 54.4667L21.2692 59.492L23.7924 57.9787C24.8067 57.3715 25.9056 56.9173 27.0536 56.6307L27.0536 64L32.9464 64L32.9464 56.6307C34.0944 56.9173 35.1933 57.3715 36.2076 57.9787L38.7308 59.492L41.7723 54.4667L39.2491 52.9533C37.3137 51.7937 35.1751 51.0097 32.9464 50.6427L32.9464 37.0813L44.7415 43.8667C43.9462 45.9721 43.5586 48.2083 43.5991 50.4573L43.654 53.3907L49.5469 53.2813L49.492 50.348C49.4712 49.1675 49.6274 47.9906 49.9554 46.856L57.0536 50.94L60 45.8667L52.9018 41.7747C53.7226 40.9281 54.665 40.2074 55.6982 39.636Z" fill="white"/>
</svg>
