<svg width="182" height="54" viewBox="0 0 182 54" fill="none" xmlns="http://www.w3.org/2000/svg">
<g clip-path="url(#clip0_1_18)">
<path d="M174.327 22.5H176.922V23.7H177.132C178.052 23.7 178.882 23.865 179.622 24.195C180.362 24.515 180.947 24.975 181.377 25.575C181.807 26.175 182.022 26.9 182.022 27.75C182.022 28.59 181.807 29.315 181.377 29.925C180.947 30.525 180.362 30.99 179.622 31.32C178.882 31.64 178.052 31.8 177.132 31.8H176.922V33H174.327V31.8H174.117C173.197 31.8 172.367 31.64 171.627 31.32C170.887 30.99 170.302 30.525 169.872 29.925C169.442 29.315 169.227 28.59 169.227 27.75C169.227 26.9 169.442 26.175 169.872 25.575C170.302 24.975 170.887 24.515 171.627 24.195C172.367 23.865 173.197 23.7 174.117 23.7H174.327V22.5ZM179.427 27.75C179.427 27.1 179.202 26.64 178.752 26.37C178.302 26.09 177.692 25.94 176.922 25.92V29.58C177.692 29.56 178.302 29.415 178.752 29.145C179.202 28.865 179.427 28.4 179.427 27.75ZM171.807 27.75C171.807 28.4 172.032 28.86 172.482 29.13C172.942 29.4 173.557 29.55 174.327 29.58V25.92C173.557 25.95 172.942 26.1 172.482 26.37C172.032 26.64 171.807 27.1 171.807 27.75Z" fill="#1D1D1D" fill-opacity="0.87"/>
<path d="M160.391 22.5H164.036C165.376 22.5 166.391 22.805 167.081 23.415C167.771 24.025 168.116 24.865 168.116 25.935C168.116 26.995 167.771 27.835 167.081 28.455C166.391 29.065 165.376 29.37 164.036 29.37H162.926V33H160.391V22.5ZM164.036 24.585H162.926V27.27H164.036C164.546 27.27 164.946 27.155 165.236 26.925C165.526 26.695 165.671 26.365 165.671 25.935C165.671 25.495 165.526 25.16 165.236 24.93C164.946 24.7 164.546 24.585 164.036 24.585Z" fill="#1D1D1D" fill-opacity="0.87"/>
<path d="M155.453 31.979C155.453 31.599 155.583 31.274 155.843 31.004C156.113 30.724 156.453 30.584 156.863 30.584C157.273 30.584 157.613 30.724 157.883 31.004C158.153 31.274 158.288 31.599 158.288 31.979C158.288 32.359 158.153 32.684 157.883 32.954C157.613 33.224 157.273 33.359 156.863 33.359C156.453 33.359 156.113 33.224 155.843 32.954C155.583 32.684 155.453 32.359 155.453 31.979Z" fill="#1D1D1D" fill-opacity="0.87"/>
<path d="M150.754 22.5H153.349V33H150.754V22.5ZM141.934 22.5H144.469V26.13H145.579C146.919 26.13 147.934 26.435 148.624 27.045C149.314 27.655 149.659 28.495 149.659 29.565C149.659 30.625 149.314 31.465 148.624 32.085C147.934 32.695 146.919 33 145.579 33H141.934V22.5ZM145.579 28.23H144.469V30.915H145.579C146.089 30.915 146.489 30.8 146.779 30.57C147.069 30.33 147.214 29.995 147.214 29.565C147.214 29.125 147.069 28.795 146.779 28.575C146.489 28.345 146.089 28.23 145.579 28.23Z" fill="#1D1D1D" fill-opacity="0.87"/>
<path d="M132.59 22.5H136.235C137.575 22.5 138.59 22.805 139.28 23.415C139.97 24.025 140.315 24.865 140.315 25.935C140.315 26.995 139.97 27.835 139.28 28.455C138.59 29.065 137.575 29.37 136.235 29.37H135.125V33H132.59V22.5ZM136.235 24.585H135.125V27.27H136.235C136.745 27.27 137.145 27.155 137.435 26.925C137.725 26.695 137.87 26.365 137.87 25.935C137.87 25.495 137.725 25.16 137.435 24.93C137.145 24.7 136.745 24.585 136.235 24.585Z" fill="#1D1D1D" fill-opacity="0.87"/>
<path d="M119.668 27.7498C119.668 26.9398 119.808 26.1998 120.088 25.5298C120.378 24.8598 120.778 24.2798 121.288 23.7898C121.808 23.2998 122.408 22.9248 123.088 22.6648C123.778 22.3948 124.523 22.2598 125.323 22.2598C126.133 22.2598 126.883 22.3948 127.573 22.6648C128.263 22.9248 128.858 23.2998 129.358 23.7898C129.868 24.2798 130.263 24.8598 130.543 25.5298C130.833 26.1998 130.978 26.9398 130.978 27.7498C130.978 28.5598 130.838 29.3048 130.558 29.9848C130.288 30.6648 129.898 31.2548 129.388 31.7548C128.878 32.2548 128.278 32.6448 127.588 32.9248C126.908 33.1948 126.153 33.3298 125.323 33.3298C124.503 33.3298 123.748 33.1948 123.058 32.9248C122.368 32.6448 121.768 32.2548 121.258 31.7548C120.748 31.2548 120.353 30.6648 120.073 29.9848C119.803 29.3048 119.668 28.5598 119.668 27.7498ZM122.353 27.7498C122.353 28.3698 122.473 28.9198 122.713 29.3998C122.963 29.8698 123.313 30.2398 123.763 30.5098C124.213 30.7798 124.733 30.9148 125.323 30.9148C125.923 30.9148 126.443 30.7798 126.883 30.5098C127.323 30.2398 127.663 29.8698 127.903 29.3998C128.153 28.9198 128.278 28.3698 128.278 27.7498C128.278 27.1298 128.158 26.5848 127.918 26.1148C127.678 25.6348 127.338 25.2598 126.898 24.9898C126.458 24.7198 125.933 24.5848 125.323 24.5848C124.733 24.5848 124.213 24.7198 123.763 24.9898C123.313 25.2598 122.963 25.6348 122.713 26.1148C122.473 26.5848 122.353 27.1298 122.353 27.7498Z" fill="#1D1D1D" fill-opacity="0.87"/>
<path d="M110.266 22.5H117.766V24.585H112.846V26.46H114.991C115.671 26.46 116.276 26.6 116.806 26.88C117.346 27.15 117.771 27.53 118.081 28.02C118.401 28.5 118.561 29.065 118.561 29.715C118.561 30.355 118.401 30.925 118.081 31.425C117.771 31.915 117.346 32.3 116.806 32.58C116.276 32.86 115.671 33 114.991 33H110.266V22.5ZM114.436 28.515H112.846V30.915H114.436C114.926 30.915 115.301 30.82 115.561 30.63C115.831 30.43 115.966 30.125 115.966 29.715C115.966 29.305 115.831 29.005 115.561 28.815C115.301 28.615 114.926 28.515 114.436 28.515Z" fill="#1D1D1D" fill-opacity="0.87"/>
<path d="M106.195 32.9998L105.205 30.9748H101.875L100.9 32.9998H98.0195L103.555 21.8398L109.075 32.9998H106.195ZM103.555 26.3698L102.385 29.0398H104.71L103.555 26.3698Z" fill="#1D1D1D" fill-opacity="0.87"/>
<path d="M93.547 33.2397C92.487 33.2397 91.617 33.0747 90.937 32.7447C90.267 32.4047 89.767 31.9647 89.437 31.4247C89.117 30.8747 88.957 30.2897 88.957 29.6697H91.462C91.482 30.1897 91.672 30.5747 92.032 30.8247C92.402 31.0747 92.872 31.1997 93.442 31.1997C94.012 31.1997 94.467 31.0947 94.807 30.8847C95.147 30.6647 95.317 30.3297 95.317 29.8797C95.317 29.4397 95.117 29.0847 94.717 28.8147C94.317 28.5447 93.682 28.4097 92.812 28.4097V26.7747C93.552 26.7747 94.102 26.6497 94.462 26.3997C94.832 26.1497 95.017 25.8397 95.017 25.4697C95.017 25.1397 94.882 24.8697 94.612 24.6597C94.352 24.4397 93.972 24.3297 93.472 24.3297C92.932 24.3297 92.507 24.4497 92.197 24.6897C91.897 24.9197 91.747 25.2147 91.747 25.5747H89.407C89.407 24.9447 89.562 24.3847 89.872 23.8947C90.182 23.4047 90.637 23.0197 91.237 22.7397C91.847 22.4497 92.592 22.3047 93.472 22.3047C94.362 22.3047 95.107 22.4347 95.707 22.6947C96.307 22.9547 96.757 23.3047 97.057 23.7447C97.367 24.1847 97.522 24.6747 97.522 25.2147C97.522 25.7647 97.347 26.2297 96.997 26.6097C96.647 26.9797 96.177 27.2747 95.587 27.4947C96.277 27.7147 96.822 28.0397 97.222 28.4697C97.622 28.8997 97.822 29.4547 97.822 30.1347C97.822 31.0447 97.462 31.7897 96.742 32.3697C96.032 32.9497 94.967 33.2397 93.547 33.2397Z" fill="#1D1D1D" fill-opacity="0.87"/>
<path d="M76.4258 27.7498C76.4258 26.9398 76.5658 26.1998 76.8458 25.5298C77.1358 24.8598 77.5358 24.2798 78.0458 23.7898C78.5658 23.2998 79.1658 22.9248 79.8458 22.6648C80.5358 22.3948 81.2808 22.2598 82.0808 22.2598C82.8908 22.2598 83.6408 22.3948 84.3308 22.6648C85.0208 22.9248 85.6158 23.2998 86.1158 23.7898C86.6258 24.2798 87.0208 24.8598 87.3008 25.5298C87.5908 26.1998 87.7358 26.9398 87.7358 27.7498C87.7358 28.5598 87.5958 29.3048 87.3158 29.9848C87.0458 30.6648 86.6558 31.2548 86.1458 31.7548C85.6358 32.2548 85.0358 32.6448 84.3458 32.9248C83.6658 33.1948 82.9108 33.3298 82.0808 33.3298C81.2608 33.3298 80.5058 33.1948 79.8158 32.9248C79.1258 32.6448 78.5258 32.2548 78.0158 31.7548C77.5058 31.2548 77.1108 30.6648 76.8308 29.9848C76.5608 29.3048 76.4258 28.5598 76.4258 27.7498ZM79.1108 27.7498C79.1108 28.3698 79.2308 28.9198 79.4708 29.3998C79.7208 29.8698 80.0708 30.2398 80.5208 30.5098C80.9708 30.7798 81.4908 30.9148 82.0808 30.9148C82.6808 30.9148 83.2008 30.7798 83.6408 30.5098C84.0808 30.2398 84.4208 29.8698 84.6608 29.3998C84.9108 28.9198 85.0358 28.3698 85.0358 27.7498C85.0358 27.1298 84.9158 26.5848 84.6758 26.1148C84.4358 25.6348 84.0958 25.2598 83.6558 24.9898C83.2158 24.7198 82.6908 24.5848 82.0808 24.5848C81.4908 24.5848 80.9708 24.7198 80.5208 24.9898C80.0708 25.2598 79.7208 25.6348 79.4708 26.1148C79.2308 26.5848 79.1108 27.1298 79.1108 27.7498Z" fill="#1D1D1D" fill-opacity="0.87"/>
<path d="M67.6797 22.5H71.3247C72.6647 22.5 73.6797 22.805 74.3697 23.415C75.0597 24.025 75.4047 24.865 75.4047 25.935C75.4047 26.995 75.0597 27.835 74.3697 28.455C73.6797 29.065 72.6647 29.37 71.3247 29.37H70.2147V33H67.6797V22.5ZM71.3247 24.585H70.2147V27.27H71.3247C71.8347 27.27 72.2347 27.155 72.5247 26.925C72.8147 26.695 72.9597 26.365 72.9597 25.935C72.9597 25.495 72.8147 25.16 72.5247 24.93C72.2347 24.7 71.8347 24.585 71.3247 24.585Z" fill="#1D1D1D" fill-opacity="0.87"/>
<path d="M62.7842 24.78H58.7792V33H56.1992V22.5H65.3642V33H62.7842V24.78Z" fill="#1D1D1D" fill-opacity="0.87"/>
<path d="M19.0958 36.84C19.5494 36.6783 19.5428 36.5963 19.0759 36.5941L7.45842 36.5243C7.4144 36.5243 7.37219 36.5415 7.34106 36.572C7.30994 36.6026 7.29246 36.644 7.29246 36.6871V43.7607C7.29246 43.8825 7.23271 43.9435 7.11321 43.9435L0.165964 43.9999C0.0575342 44.0022 0.00331935 43.949 0.00331935 43.8405L0 14.2869C0 14.1407 0.0630662 14.0311 0.189199 13.958L3.46201 12.0642C3.56601 12.0044 3.66891 12.0044 3.7707 12.0642L7.14309 14.0178C7.24267 14.0754 7.29246 14.1618 7.29246 14.277V19.0481C7.29245 19.0767 7.29814 19.1051 7.30919 19.1315C7.32024 19.1579 7.33643 19.1819 7.35682 19.202C7.3772 19.222 7.40138 19.2379 7.42794 19.2485C7.4545 19.2592 7.48292 19.2645 7.51153 19.264L14.6911 19.1378C14.7929 19.1378 14.8438 19.0857 14.8438 18.9816V14.2338C14.8438 14.1075 14.898 14.0134 15.0065 13.9514L18.3423 12.0376C18.3864 12.0124 18.4364 11.9994 18.4872 12C18.5379 12.0006 18.5876 12.0147 18.6311 12.0409L21.9935 13.9946C22.0953 14.0544 22.1462 14.1441 22.1462 14.2637V19.0281C22.1462 19.0757 22.1651 19.1213 22.1987 19.155C22.2323 19.1886 22.2779 19.2075 22.3255 19.2075L29.5416 19.2241C29.6456 19.2241 29.6976 19.1721 29.6976 19.068V14.2537C29.6976 14.1363 29.7485 14.0477 29.8503 13.9879L33.2127 12.0808C33.2674 12.0495 33.3297 12.0334 33.3932 12.034C33.4567 12.0345 33.5192 12.0518 33.5745 12.0841L36.8307 13.9846C36.8823 14.0148 36.925 14.058 36.9548 14.1098C36.9845 14.1617 37.0001 14.2205 37 14.2803V43.6478C37 43.8582 36.8949 43.9623 36.6847 43.9601L29.8104 43.9036C29.7264 43.9036 29.6843 43.8615 29.6843 43.7773L29.7275 38.4613C29.7275 38.324 29.7938 38.2398 29.9266 38.2088C31.4668 37.8345 32.9715 37.3539 34.4408 36.7669C34.4634 36.7584 34.4822 36.7422 34.4941 36.7212C34.5059 36.7002 34.51 36.6757 34.5057 36.652C34.5013 36.6282 34.4888 36.6068 34.4703 36.5914C34.4518 36.5759 34.4284 36.5675 34.4043 36.5675L22.3653 36.4978C22.2193 36.4978 22.1462 36.5709 22.1462 36.717V43.7806C22.1462 43.8582 22.1075 43.8969 22.0301 43.8969L14.9998 43.9734C14.8958 43.9734 14.8438 43.9224 14.8438 43.8205V38.5145C14.8438 38.3883 14.9047 38.3052 15.0264 38.2653C16.0775 37.9286 17.1197 37.6208 18.1531 37.3417C18.578 37.2254 18.7705 36.9563 19.0958 36.84ZM14.95 25.4405L19.2551 24.1481C19.2751 24.1424 19.2924 24.1296 19.3037 24.1122C19.3151 24.0948 19.3198 24.0739 19.3169 24.0533C19.3141 24.0327 19.304 24.0138 19.2883 24.0001C19.2727 23.9863 19.2527 23.9787 19.2319 23.9786H7.58455C7.44514 23.9786 7.37544 24.0473 7.37544 24.1846V31.7034C7.37544 31.8142 7.43076 31.8695 7.5414 31.8695H14.5949C14.7055 31.8695 14.7608 31.8142 14.7608 31.7034V25.693C14.7608 25.5623 14.8239 25.4782 14.95 25.4405ZM29.8038 25.4372L34.3413 24.0783C34.5603 24.0119 34.5559 23.9786 34.328 23.9786H22.3952C22.3512 23.9786 22.3089 23.9961 22.2778 24.0273C22.2467 24.0584 22.2292 24.1007 22.2292 24.1448V31.7034C22.2292 31.8142 22.2845 31.8695 22.3952 31.8695H29.4486C29.5593 31.8695 29.6146 31.8142 29.6146 31.7034V25.6897C29.6145 25.6332 29.6329 25.5781 29.667 25.5326C29.7011 25.4871 29.7491 25.4536 29.8038 25.4372Z" fill="#363839"/>
<g clip-path="url(#clip1_1_18)">
<path d="M25.6828 3.18115C25.6577 3.18719 25.6343 3.19841 25.6142 3.21403C25.5941 3.22965 25.5777 3.24929 25.5663 3.27159C25.5549 3.2939 25.5486 3.31833 25.548 3.34318C25.5474 3.36803 25.5525 3.39271 25.5628 3.4155C25.7773 4.28499 25.8323 5.18377 25.7254 6.07142C25.6082 7.19641 25.2242 8.28061 24.6027 9.24067C23.9139 10.2517 22.9077 11.0256 21.7302 11.4502C20.6841 11.8697 19.5517 12.0529 18.4203 11.9859C17.0785 11.9361 15.7739 11.5488 14.6367 10.8627C13.4994 10.1767 12.5695 9.21591 11.9398 8.07638C11.4482 7.24926 11.1447 6.33136 11.0494 5.38326C11.0184 5.07452 11.0145 4.46076 11.0107 4.18549C11.0117 4.173 11.0161 4.16098 11.0235 4.15068C11.0309 4.14037 11.0411 4.13215 11.0529 4.12685C11.0647 4.12155 11.0778 4.11937 11.0908 4.12052C11.1038 4.12167 11.1162 4.12612 11.1268 4.13342C11.2468 4.22269 11.3591 4.30825 11.4791 4.39008C12.3115 4.97258 13.2862 5.33899 14.309 5.45394C16.0162 5.65853 17.406 5.04476 18.6332 3.92139C19.2363 3.35155 19.6912 2.6532 19.9611 1.88295C20.1158 1.37805 20.4261 0.930058 20.8511 0.598033C21.2762 0.266008 21.7959 0.0655413 22.3419 0.0230612C22.9249 -0.0370913 23.5127 0.0816825 24.0211 0.362346C24.5295 0.643009 24.9323 1.07114 25.1718 1.58537C25.2112 1.65741 25.2756 1.71398 25.3538 1.74532L26.9294 2.31816C26.9516 2.32796 26.9704 2.34368 26.9837 2.36346C26.9969 2.38324 27.0039 2.40625 27.0039 2.42976C27.0039 2.45326 26.9969 2.47628 26.9837 2.49606C26.9704 2.51584 26.9516 2.53156 26.9294 2.54135C26.6313 2.71246 26.0545 3.0212 25.6828 3.18115Z" fill="#3FD97F"/>
</g>
</g>
<defs>
<clipPath id="clip0_1_18">
<rect width="182" height="54" fill="white"/>
</clipPath>
<clipPath id="clip1_1_18">
<rect width="16" height="12" fill="white" transform="translate(11)"/>
</clipPath>
</defs>
</svg>
