<svg width="196" height="196" viewBox="0 0 196 196" fill="none" xmlns="http://www.w3.org/2000/svg">
<path d="M187.048 101.866C186.016 101.786 185.09 101.946 184.273 102.346C183.456 102.746 182.802 103.307 182.311 104.027C181.833 104.762 181.559 105.577 181.49 106.47C181.41 107.503 181.537 108.411 181.869 109.195C182.215 109.994 182.668 110.668 183.229 111.217L180.277 110.989C179.821 110.35 179.488 109.657 179.279 108.911C179.069 108.178 179.006 107.275 179.089 106.2C179.172 105.125 179.43 104.141 179.865 103.248C180.313 102.356 180.899 101.587 181.623 100.941C182.345 100.309 183.183 99.8326 184.134 99.513C185.098 99.2084 186.139 99.0993 187.256 99.1856C188.372 99.2719 189.377 99.5391 190.269 99.9872C191.174 100.45 191.935 101.05 192.552 101.786C193.168 102.535 193.622 103.385 193.914 104.334C194.219 105.284 194.331 106.297 194.248 107.372C194.164 108.447 193.963 109.33 193.643 110.021C193.321 110.726 192.886 111.36 192.337 111.921L189.385 111.693C190.024 111.237 190.569 110.64 191.019 109.903C191.482 109.18 191.753 108.302 191.833 107.269C191.902 106.376 191.75 105.529 191.377 104.728C191.016 103.942 190.463 103.288 189.717 102.767C188.985 102.247 188.095 101.947 187.048 101.866Z" fill="white"/>
<path d="M191.064 113.611L193.297 114.117L191.032 124.111L188.8 123.606L189.658 119.817L177.554 117.074L178.106 114.637L190.21 117.379L191.064 113.611Z" fill="white"/>
<path d="M172.492 132.303L176.624 132.104L178.584 127.053L175.668 124.12L176.678 121.516L188.547 133.826L171.481 134.907L172.492 132.303ZM183.908 132.025L180.283 128.479L178.84 132.198L183.908 132.025Z" fill="white"/>
<path d="M169.824 145.843C168.989 145.358 168.415 144.758 168.102 144.042C167.782 143.338 167.69 142.563 167.824 141.719C167.964 140.893 168.294 140.032 168.814 139.137L171.166 135.087L183.877 142.47L181.652 146.302C180.949 147.513 180.113 148.339 179.144 148.78C178.188 149.228 177.171 149.139 176.093 148.513C175.452 148.141 175.009 147.649 174.765 147.037C174.533 146.433 174.481 145.756 174.61 145.005C173.947 145.672 173.202 146.105 172.374 146.304C171.558 146.51 170.708 146.357 169.824 145.843ZM179.975 145.134L180.871 143.59L177.53 141.649L176.634 143.193C176.289 143.786 176.153 144.355 176.226 144.899C176.31 145.45 176.613 145.877 177.133 146.179C177.666 146.488 178.187 146.54 178.695 146.333C179.204 146.127 179.63 145.727 179.975 145.134ZM171.683 138.253L170.649 140.033C170.227 140.759 170.055 141.46 170.132 142.136C170.221 142.819 170.616 143.365 171.318 143.773C172.008 144.173 172.66 144.236 173.273 143.961C173.886 143.686 174.404 143.185 174.826 142.459L175.859 140.679L171.683 138.253Z" fill="white"/>
<path d="M174.962 156.506L167.407 150.351L168.754 165.29L156.787 155.541L158.326 153.652L165.881 159.807L164.534 144.868L176.501 154.617L174.962 156.506Z" fill="white"/>
<path d="M160.067 164.552L155.062 157.069L157.018 155.415L165.443 168.504L154.401 164.778L156.222 176.3L144.718 165.814L146.674 164.16L153.219 170.341L151.757 161.65L160.067 164.552Z" fill="white"/>
<path d="M144.157 183.104L141.864 184.197L139.234 178.681L136.935 186.547L134.243 187.83L136.871 178.946L127.633 174.696L130.382 173.386L138.484 177.107L135.538 170.928L137.832 169.834L144.157 183.104Z" fill="white"/>
<path d="M130.208 189.316L125.954 190.555C124.919 190.857 123.973 190.936 123.114 190.793C122.26 190.663 121.528 190.329 120.919 189.792C120.311 189.255 119.875 188.536 119.613 187.635C119.221 186.291 119.367 185.089 120.05 184.03C120.736 182.984 121.853 182.236 123.398 181.785L125.273 181.239L123.716 175.896L126.095 175.203L130.208 189.316ZM125.343 188.459L127.218 187.912L125.884 183.336L124.009 183.882C123.189 184.121 122.586 184.501 122.198 185.022C121.814 185.557 121.732 186.201 121.952 186.954C122.171 187.706 122.586 188.205 123.197 188.45C123.808 188.695 124.523 188.698 125.343 188.459Z" fill="white"/>
<path d="M104.867 194.582L109.796 179.105L112.42 178.759L111.077 183.363L117.234 192.952L114.34 193.333L110.037 185.915L107.532 194.23L104.867 194.582Z" fill="white"/>
<path d="M101.113 194.659L93.259 194.568L93.2855 192.279L98.6402 192.341L98.7839 179.931L101.283 179.96L101.113 194.659Z" fill="white"/>
<path d="M76.6733 192.373L79.0953 177.874L81.5808 178.289L79.536 190.53L85.3149 191.496L86.4532 184.681C86.7254 183.052 87.3036 181.8 88.1877 180.925C89.0718 180.051 90.2734 179.741 91.7923 179.995L91.4429 182.087C90.7939 181.978 90.2414 182.227 89.7855 182.832C89.3157 183.435 88.9966 184.24 88.8283 185.248L87.3405 194.155L76.6733 192.373Z" fill="white"/>
<path d="M61.0155 187.275L58.6495 186.407L63.7102 172.606L66.0762 173.473L61.0155 187.275ZM71.8003 191.229L69.4738 190.376L71.3896 185.151L69.556 184.479C68.0444 183.925 66.9815 183.103 66.3672 182.012C65.753 180.922 65.6892 179.713 66.176 178.386C66.499 177.505 66.9822 176.818 67.6259 176.323C68.2695 175.828 69.0244 175.538 69.8906 175.453C70.752 175.382 71.6888 175.531 72.7009 175.902L76.861 177.428L71.8003 191.229ZM70.3079 182.428L72.1415 183.101L73.7826 178.625L71.949 177.953C71.1472 177.659 70.4333 177.613 69.8071 177.816C69.181 178.019 68.733 178.488 68.4631 179.225C68.1932 179.961 68.234 180.602 68.5853 181.148C68.9319 181.708 69.5061 182.134 70.3079 182.428Z" fill="white"/>
<path d="M48.2447 185.795L46.7686 184.908C46.9272 184.644 46.991 184.307 46.96 183.896C46.9098 183.491 46.6267 183.133 46.1106 182.823C45.5826 182.505 45.1336 182.424 44.7638 182.577C44.3748 182.735 44.1009 182.946 43.9423 183.211L42.4662 182.324C42.7329 181.88 43.0993 181.528 43.5652 181.269C44.0119 181.015 44.527 180.891 45.1104 180.899C45.6747 180.911 46.2748 181.108 46.9109 181.491C47.5349 181.865 47.9909 182.303 48.2787 182.802C48.5594 183.314 48.6924 183.826 48.6777 184.34C48.6558 184.866 48.5115 185.351 48.2447 185.795ZM51.6498 182.696L56.6674 174.343L42.0724 177.8L50.0206 164.569L52.1088 165.823L47.0912 174.176L61.6861 170.719L53.738 183.95L51.6498 182.696Z" fill="white"/>
<path d="M34.2241 170.395L28.5904 164.923L30.1853 163.281L34.0265 167.012L42.6739 158.109L44.4665 159.851L34.2241 170.395Z" fill="white"/>
<path d="M31.381 157.309C30.5146 157.973 29.5998 158.437 28.6366 158.699C27.6623 158.971 26.6998 159.038 25.7491 158.903C24.7787 158.765 23.8624 158.445 23 157.942C22.1376 157.439 21.3741 156.754 20.7094 155.888C20.0447 155.022 19.581 154.107 19.3185 153.144C19.0474 152.169 18.9752 151.201 19.1019 150.239C19.209 149.275 19.5196 148.357 20.0337 147.486C20.5367 146.624 21.2213 145.861 22.0877 145.196C22.9541 144.531 23.8744 144.063 24.8487 143.792C25.8119 143.53 26.78 143.457 27.7529 143.576C28.7148 143.702 29.6367 144.018 30.5187 144.524C31.381 145.027 32.1488 145.717 32.8221 146.595C33.4953 147.472 33.9632 148.393 34.2258 149.356C34.4772 150.327 34.5396 151.294 34.4129 152.256C34.2751 153.226 33.9547 154.143 33.4517 155.005C32.9376 155.876 32.2474 156.644 31.381 157.309ZM29.7831 155.226C30.5828 154.612 31.1714 153.896 31.5489 153.077C31.9067 152.255 32.0333 151.408 31.9285 150.536C31.8238 149.663 31.4774 148.844 30.8894 148.078C30.2928 147.3 29.591 146.753 28.7839 146.437C27.9683 146.11 27.1216 146.019 26.244 146.163C25.3466 146.304 24.4981 146.682 23.6984 147.295C22.8987 147.909 22.3156 148.621 21.9492 149.431C21.5718 150.25 21.4354 151.096 21.5402 151.968C21.6364 152.83 21.987 153.655 22.5921 154.443C23.1801 155.21 23.8819 155.757 24.6976 156.084C25.5132 156.411 26.3697 156.504 27.267 156.362C28.1447 156.218 28.9834 155.839 29.7831 155.226Z" fill="white"/>
<path d="M23.1629 130.9L28.2599 140.558L30.3028 139.479L31.4104 141.578L27.3988 143.695L26.4382 141.875L12.0609 142.933L21.057 131.679L20.0964 129.859L24.108 127.742L25.2058 129.822L23.1629 130.9ZM16.481 140.6L25.1836 139.498L22.3019 134.038L16.481 140.6Z" fill="white"/>
<path d="M9.37134 94.2928C10.4036 94.3806 11.3299 94.2276 12.1503 93.8337C12.9706 93.4398 13.629 92.8846 14.1255 92.1681C14.6093 91.4364 14.8891 90.6242 14.965 89.7315C15.0528 88.6992 14.9335 87.7898 14.6069 87.0033C14.2677 86.2017 13.8195 85.5242 13.2623 84.971L16.2127 85.222C16.6639 85.8645 16.9911 86.5597 17.1945 87.3077C17.399 88.0416 17.4556 88.9457 17.3642 90.0198C17.2729 91.0939 17.0067 92.0759 16.5657 92.9657C16.1107 93.8544 15.5188 94.619 14.7899 95.2595C14.0622 95.8861 13.2214 96.3555 12.2675 96.6678C11.3008 96.9649 10.2595 97.0661 9.14354 96.9711C8.02757 96.8762 7.02526 96.6013 6.13662 96.1463C5.23522 95.6763 4.47879 95.071 3.86735 94.3305C3.25709 93.5761 2.80977 92.7231 2.52538 91.7716C2.22705 90.8189 2.12356 89.8054 2.21492 88.7313C2.30628 87.6572 2.51473 86.7757 2.84029 86.0868C3.16703 85.384 3.607 84.754 4.1602 84.1969L7.11055 84.4478C6.468 84.899 5.91881 85.4916 5.46296 86.2256C4.99435 86.9444 4.71615 87.82 4.62835 88.8523C4.55242 89.7451 4.69804 90.5935 5.06522 91.3975C5.41964 92.1863 5.96787 92.8442 6.70989 93.3709C7.43797 93.8965 8.32512 94.2038 9.37134 94.2928Z" fill="white"/>
<path d="M5.42313 82.6034L3.19463 82.0806L5.5353 72.1035L7.76379 72.6263L6.87645 76.4086L18.9594 79.2433L18.3886 81.6763L6.30567 78.8416L5.42313 82.6034Z" fill="white"/>
<path d="M24.0885 64.1473L19.9554 64.3148L17.9573 69.3509L20.8512 72.3065L19.8212 74.9027L8.04477 62.5036L25.1185 61.5511L24.0885 64.1473ZM12.671 64.3391L16.2686 67.9128L17.7401 64.204L12.671 64.3391Z" fill="white"/>
<path d="M26.6637 50.868C27.4972 51.3563 28.069 51.959 28.3791 52.676C28.6962 53.381 28.786 54.1557 28.6484 54.9999C28.5058 55.825 28.1727 56.6845 27.6491 57.5784L25.2821 61.6191L12.5981 54.189L14.8377 50.3657C15.5454 49.1577 16.3843 48.3349 17.3545 47.8973C18.3127 47.4526 19.3294 47.5452 20.4045 48.175C21.0447 48.55 21.4857 49.0436 21.7275 49.6558C21.9571 50.2608 22.0063 50.9386 21.8749 51.6892C22.5402 51.0243 23.2872 50.5938 24.116 50.3978C24.9326 50.1947 25.7818 50.3515 26.6637 50.868ZM16.5104 51.5403L15.6082 53.0805L18.9423 55.0335L19.8445 53.4933C20.1913 52.9014 20.3294 52.3333 20.2588 51.789C20.1762 51.2376 19.8751 50.8098 19.3557 50.5055C18.8242 50.1941 18.3038 50.1408 17.7945 50.3454C17.2852 50.5501 16.8572 50.9484 16.5104 51.5403ZM24.7769 58.4514L25.8171 56.6756C26.2417 55.9508 26.4168 55.2503 26.3425 54.5739C26.2561 53.8905 25.8625 53.3436 25.1619 52.9332C24.4733 52.5298 23.822 52.4647 23.2077 52.7376C22.5935 53.0106 22.0741 53.5095 21.6495 54.2343L20.6093 56.0101L24.7769 58.4514Z" fill="white"/>
<path d="M21.8284 39.8097L29.338 46.0186L28.0998 31.071L39.9954 40.9064L38.4432 42.7838L30.9336 36.5748L32.1717 51.5224L20.2761 41.6871L21.8284 39.8097Z" fill="white"/>
<path d="M36.7732 31.8667L41.7242 39.3856L39.7557 41.0253L31.4261 27.8753L42.4412 31.6824L40.7041 20.1472L52.1317 30.7166L50.1632 32.3564L43.6631 26.1277L45.062 34.8289L36.7732 31.8667Z" fill="white"/>
<path d="M52.4251 13.6009L54.7269 12.5246L57.3154 18.0603L59.6728 10.2118L62.3741 8.94861L59.68 17.8123L68.8862 22.1312L66.1279 23.4211L58.0538 19.6392L60.9537 25.8406L58.6519 26.917L52.4251 13.6009Z" fill="white"/>
<path d="M66.7076 7.33175L70.9709 6.12422C72.0081 5.83044 72.9554 5.75857 73.8127 5.90861C74.6662 6.04518 75.3953 6.38434 75.9998 6.9261C76.6043 7.46786 77.0344 8.18999 77.29 9.09249C77.6715 10.4395 77.5169 11.6401 76.826 12.6943C76.1313 13.735 75.0094 14.4747 73.4604 14.9135L71.5813 15.4457L73.0979 20.8001L70.7137 21.4754L66.7076 7.33175ZM71.5661 8.22555L69.687 8.75778L70.9861 13.3444L72.8652 12.8121C73.6869 12.5794 74.2935 12.2039 74.6851 11.6855C75.0728 11.1537 75.1599 10.5107 74.9462 9.75635C74.7325 9.00202 74.3212 8.50013 73.7122 8.25066C73.1031 8.00119 72.3878 7.99282 71.5661 8.22555Z" fill="white"/>
<path d="M91.9793 2.24462L86.9309 17.6828L84.305 18.0083L85.6824 13.415L79.6 3.77898L82.4968 3.41993L86.7426 10.8713L89.3117 2.57526L91.9793 2.24462Z" fill="white"/>
<path d="M95.5648 2.15054L103.417 2.30211L103.373 4.59068L98.0191 4.48734L97.7796 16.896L95.2811 16.8478L95.5648 2.15054Z" fill="white"/>
<path d="M120.366 4.62276L117.834 19.1029L115.351 18.6687L117.49 6.44331L111.718 5.43375L110.528 12.2394C110.243 13.8667 109.655 15.1141 108.765 15.9816C107.874 16.8491 106.67 17.1501 105.153 16.8848L105.519 14.7955C106.167 14.9089 106.721 14.6647 107.182 14.0631C107.656 13.4639 107.981 12.6609 108.157 11.6542L109.713 2.75924L120.366 4.62276Z" fill="white"/>
<path d="M135.691 9.7128L138.05 10.5981L132.886 24.3611L130.527 23.4758L135.691 9.7128ZM124.936 5.67734L127.256 6.54788L125.301 11.7582L127.13 12.4443C128.637 13.0099 129.694 13.84 130.3 14.9347C130.906 16.0294 130.961 17.2387 130.464 18.5626C130.134 19.4408 129.646 20.1248 128.999 20.6146C128.351 21.1044 127.594 21.3885 126.727 21.467C125.866 21.5324 124.93 21.3757 123.921 20.997L119.772 19.4404L124.936 5.67734ZM126.363 14.4891L124.534 13.803L122.859 18.2661L124.688 18.9522C125.487 19.2522 126.201 19.3032 126.829 19.105C127.456 18.9069 127.908 18.4408 128.183 17.7068C128.459 16.9727 128.423 16.3312 128.075 15.7822C127.733 15.2201 127.162 14.7891 126.363 14.4891Z" fill="white"/>
<path d="M148.224 11.0795L149.696 11.9716C149.537 12.2351 149.472 12.5721 149.501 12.9828C149.55 13.3888 149.832 13.7477 150.347 14.0596C150.874 14.3788 151.322 14.4623 151.693 14.3102C152.082 14.1533 152.357 13.9432 152.516 13.6798L153.989 14.5719C153.721 15.015 153.353 15.3652 152.886 15.6225C152.439 15.8752 151.923 15.9966 151.34 15.987C150.776 15.9726 150.176 15.7732 149.542 15.3888C148.919 15.0116 148.465 14.5727 148.179 14.0721C147.9 13.5595 147.769 13.0464 147.785 12.5326C147.809 12.0069 147.955 11.5225 148.224 11.0795ZM144.807 14.166L139.759 22.5003L154.366 19.097L146.37 32.2989L144.286 31.0368L149.334 22.7026L134.727 26.1058L142.724 12.9039L144.807 14.166Z" fill="white"/>
<path d="M162.608 26.8317L168.202 32.3448L166.595 33.9751L162.781 30.2162L154.069 39.0556L152.29 37.3015L162.608 26.8317Z" fill="white"/>
<path d="M165.342 39.8948C166.213 39.2364 167.131 38.7795 168.096 38.524C169.072 38.26 170.035 38.1991 170.985 38.3412C171.955 38.4861 172.869 38.8132 173.727 39.3224C174.586 39.8317 175.344 40.522 176.003 41.3932C176.661 42.2644 177.118 43.1825 177.374 44.1476C177.638 45.1238 177.703 46.0924 177.569 47.0533C177.455 48.0169 177.138 48.9323 176.617 49.7994C176.108 50.658 175.418 51.4166 174.546 52.0749C173.675 52.7333 172.751 53.1945 171.775 53.4584C170.81 53.714 169.842 53.7791 168.87 53.6538C167.909 53.5201 166.989 53.1973 166.111 52.6853C165.252 52.176 164.489 51.4802 163.823 50.5978C163.156 49.7154 162.695 48.7917 162.439 47.8266C162.195 46.8531 162.139 45.8859 162.273 44.925C162.418 43.9557 162.745 43.0417 163.254 42.183C163.775 41.3159 164.471 40.5532 165.342 39.8948ZM166.924 41.989C166.12 42.5968 165.526 43.3087 165.143 44.1249C164.779 44.9439 164.646 45.79 164.745 46.6632C164.843 47.5365 165.184 48.3584 165.766 49.1291C166.357 49.911 167.055 50.4628 167.859 50.7847C168.673 51.1177 169.519 51.2155 170.397 51.0779C171.296 50.943 172.147 50.5717 172.951 49.9639C173.755 49.3562 174.344 48.6485 174.716 47.8407C175.099 47.0245 175.242 46.1798 175.143 45.3065C175.053 44.4444 174.709 43.6169 174.11 42.8239C173.527 42.0532 172.829 41.5013 172.016 41.1683C171.203 40.8352 170.347 40.7362 169.449 40.871C168.57 41.0086 167.729 41.3813 166.924 41.989Z" fill="white"/>
<path d="M173.389 66.3482L168.363 56.6532L166.313 57.7163L165.221 55.6095L169.248 53.522L170.195 55.3492L184.58 54.3975L175.5 65.5848L176.447 67.4119L172.42 69.4994L171.338 67.4112L173.389 66.3482ZM180.142 56.6976L171.432 57.7356L174.273 63.217L180.142 56.6976Z" fill="white"/>
<circle cx="179.531" cy="86.0288" r="3" transform="rotate(-9.94169 179.531 86.0288)" fill="white"/>
<circle cx="17.9963" cy="114.343" r="3" transform="rotate(-9.94169 17.9963 114.343)" fill="white"/>
</svg>
